HIERARCHY
ROOT Hips
{
	OFFSET 51.999100 7.814161 55.347599
	CHANNELS 6 Xposition Yposition Zposition Xrotation Yrotation Zrotation
	JOINT spine
	{
		OFFSET 0.000000 -0.393701 6.846371
		CHANNELS 3 Xrotation Yrotation Zrotation
		JOINT spine1
		{
			OFFSET 0.000000 -0.000001 9.496208
			CHANNELS 3 Xrotation Yrotation Zrotation
			JOINT spine2
			{
				OFFSET 0.000000 -0.000002 9.099091
				CHANNELS 3 Xrotation Yrotation Zrotation
				JOINT Neck
				{
					OFFSET 0.000000 -1.113784 23.361198
					CHANNELS 3 Xrotation Yrotation Zrotation
					JOINT Head
					{
						OFFSET 0.000000 -0.000001 7.058022
						CHANNELS 3 Xrotation Yrotation Zrotation
						End Site
						{
							OFFSET 0.000000 5.634187 17.084404
						}
					}
				}
				JOINT RightShoulder
				{
					OFFSET -3.831360 0.533490 9.826309
					CHANNELS 3 Xrotation Yrotation Zrotation
					JOINT RightArm
					{
						OFFSET 0.000000 -0.000002 12.888100
						CHANNELS 3 Xrotation Yrotation Zrotation
						JOINT RightArmRoll
						{
							OFFSET 0.000000 -0.000001 6.506172
							CHANNELS 3 Xrotation Yrotation Zrotation
							JOINT RightForeArm
							{
								OFFSET 0.000000 -0.000003 18.950096
								CHANNELS 3 Xrotation Yrotation Zrotation
								JOINT RightForeArmRoll
								{
									OFFSET 0.000000 -0.000001 7.300919
									CHANNELS 3 Xrotation Yrotation Zrotation
									JOINT RightHand
									{
										OFFSET 0.000000 -0.000002 14.651398
										CHANNELS 3 Xrotation Yrotation Zrotation
										End Site
										{
											OFFSET 0.000000 0.000000 0.100006
										}
									}
								}
							}
						}
					}
				}
				JOINT LeftShoulder
				{
					OFFSET 3.831360 0.533490 9.826309
					CHANNELS 3 Xrotation Yrotation Zrotation
					JOINT LeftArm
					{
						OFFSET 0.000000 -0.000002 12.888100
						CHANNELS 3 Xrotation Yrotation Zrotation
						JOINT LeftArmRoll
						{
							OFFSET 0.000000 -0.000001 6.506172
							CHANNELS 3 Xrotation Yrotation Zrotation
							JOINT LeftForeArm
							{
								OFFSET 0.000000 -0.000003 18.950096
								CHANNELS 3 Xrotation Yrotation Zrotation
								JOINT LeftForeArmRoll
								{
									OFFSET 0.000000 -0.000001 7.300919
									CHANNELS 3 Xrotation Yrotation Zrotation
									JOINT LeftHand
									{
										OFFSET 0.000000 -0.000002 14.651398
										CHANNELS 3 Xrotation Yrotation Zrotation
										End Site
										{
											OFFSET 0.000000 0.000000 0.100006
										}
									}
								}
							}
						}
					}
				}
			}
		}
	}
	JOINT RightUpLeg
	{
		OFFSET -6.068371 0.933478 -1.112782
		CHANNELS 3 Xrotation Yrotation Zrotation
		JOINT RightUpLegRoll
		{
			OFFSET 0.000000 -0.000003 17.179596
			CHANNELS 3 Xrotation Yrotation Zrotation
			JOINT RightLeg
			{
				OFFSET 0.000000 0.000003 -21.274300
				CHANNELS 3 Xrotation Yrotation Zrotation
				JOINT RightLegRoll
				{
					OFFSET 0.000000 -0.000003 21.343903
					CHANNELS 3 Xrotation Yrotation Zrotation
					JOINT RightFoot
					{
						OFFSET 0.000000 -0.000003 17.765198
						CHANNELS 3 Xrotation Yrotation Zrotation
						JOINT RightToeBase
						{
							OFFSET 0.000000 -0.000003 14.850800
							CHANNELS 3 Xrotation Yrotation Zrotation
							End Site
							{
								OFFSET 0.006294 0.829004 7.192131
							}
						}
					}
				}
			}
		}
	}
	JOINT LeftUpLeg
	{
		OFFSET 6.068371 0.933478 -1.112782
		CHANNELS 3 Xrotation Yrotation Zrotation
		JOINT LeftUpLegRoll
		{
			OFFSET 0.000000 -0.000003 17.179703
			CHANNELS 3 Xrotation Yrotation Zrotation
			JOINT LeftLeg
			{
				OFFSET 0.000000 -0.000004 21.274200
				CHANNELS 3 Xrotation Yrotation Zrotation
				JOINT LeftLegRoll
				{
					OFFSET 0.000000 -0.000004 21.541199
					CHANNELS 3 Xrotation Yrotation Zrotation
					JOINT LeftFoot
					{
						OFFSET 0.000000 -0.000003 17.567902
						CHANNELS 3 Xrotation Yrotation Zrotation
						JOINT LeftToeBase
						{
							OFFSET 0.000000 -0.000002 14.850800
							CHANNELS 3 Xrotation Yrotation Zrotation
							End Site
							{
								OFFSET -0.028210 0.829004 7.192139
							}
						}
					}
				}
			}
		}
	}
}
MOTION
Frames: 8
Frame Time: 0.041667
49.889301 -21.094015 86.865494 3.631075 -0.526164 -4.064411 -2.134364 -1.208611 0.983219 -0.260788 -2.444035 1.916128 1.384516 -2.420574 1.945275 3.845058 18.521772 -1.052289 9.463748 -13.094077 -1.717919 -10.610492 -49.430803 -11.953264 -53.806349 -149.931600 -64.384498 -0.000004 -0.000002 -0.000001 0.224383 -27.983020 1.697834 0.000003 -0.000010 -3.029179 -5.000159 -8.000255 0.000075 -39.957809 76.330144 44.912349 103.349901 47.911588 -110.990178 0.000001 0.000001 0.000005 1.387105 26.993410 -1.597607 0.000011 -0.000001 3.004659 -5.000157 8.000160 -0.000106 -18.992589 -176.114925 -1.376469 -179.999991 0.000005 -0.892004 159.710218 -3.984361 -1.246547 -0.000004 0.000005 0.281814 69.353768 6.670149 2.701482 25.456854 -7.355620 -0.000002 -15.861294 177.201567 0.853908 -0.000004 -0.000004 -0.846494 -22.222616 1.773675 1.125326 0.000002 -0.000001 -0.394229 74.257509 -6.073608 -4.165050 25.457211 7.359668 -0.008126 
49.889099 -21.093718 86.861893 3.626455 -0.528731 -4.062380 -2.133795 -1.208692 0.982028 -0.256223 -2.444556 1.915051 1.389080 -2.420740 1.944202 3.846418 18.524043 -1.052906 9.472113 -13.105918 -1.715634 -10.598551 -49.431107 -11.938314 -53.804286 -149.849665 -64.261090 -0.000002 -0.000001 -0.000001 0.224383 -27.961020 1.663259 0.000005 -0.000010 -3.030379 -5.000162 -8.000258 0.000075 -39.964055 76.323717 44.919835 103.327197 48.011128 -111.070972 0.000004 0.000001 0.000004 1.322448 26.947641 -1.581105 0.000008 -0.000002 3.004600 -5.000152 8.000162 -0.000106 -18.984342 -176.111893 -1.371387 -179.999991 0.000005 -0.892004 159.713168 -3.986308 -1.246021 -0.000004 0.000005 0.281815 69.354731 6.671205 2.697517 25.456858 -7.355620 -0.000002 -15.851331 177.205283 0.854555 -0.000005 -0.000004 -0.846494 -22.212513 1.773978 1.124700 0.000002 -0.000001 -0.394131 74.252960 -6.073791 -4.164621 25.457215 7.359668 -0.008126 
49.888599 -21.097313 86.865593 3.621644 -0.531313 -4.060492 -2.133245 -1.208742 0.980748 -0.251509 -2.445077 1.913840 1.393794 -2.420875 1.942995 3.847409 18.526816 -1.053381 9.480581 -13.118248 -1.713219 -10.586106 -49.431145 -11.922724 -53.802093 -149.767498 -64.137949 -0.000002 -0.000001 -0.000001 0.224378 -27.938721 1.628701 0.000003 -0.000006 -3.031550 -5.000159 -8.000256 0.000074 -39.971100 76.317132 44.928182 103.304439 48.111156 -111.150872 0.000004 0.000001 0.000006 1.256146 26.902443 -1.565029 0.000009 -0.000003 3.004511 -5.000160 8.000160 -0.000106 -18.975684 -176.108860 -1.366272 -179.999991 0.000005 -0.892004 159.716310 -3.989209 -1.246841 -0.000004 0.000005 0.281815 69.355571 6.672223 2.693551 25.456856 -7.355619 -0.000002 -15.841066 177.208998 0.855514 -0.000005 -0.000004 -0.846494 -22.202105 1.774091 1.124053 0.000003 -0.000001 -0.394041 74.248302 -6.073951 -4.164196 25.457208 7.359668 -0.008127 
49.882801 -21.108118 86.864990 3.616709 -0.533904 -4.058704 -2.132703 -1.208783 0.979408 -0.246690 -2.445598 1.912543 1.398619 -2.420999 1.941702 3.848140 18.529799 -1.053747 9.489141 -13.131170 -1.710675 -10.573329 -49.431025 -11.906699 -53.798808 -149.686287 -64.013127 -0.000004 -0.000001 -0.000001 0.224381 -27.916219 1.594155 0.000002 -0.000008 -3.032700 -5.000160 -8.000254 0.000078 -39.978402 76.310370 44.936822 103.282685 48.211327 -111.231495 0.000005 0.000001 0.000005 1.188693 26.857636 -1.549279 0.000006 -0.000003 3.004400 -5.000154 8.000158 -0.000106 -18.966938 -176.105814 -1.361153 -179.999991 0.000006 -0.892004 159.719766 -3.991170 -1.246293 -0.000004 0.000005 0.281815 69.356323 6.673266 2.689599 25.456858 -7.355619 -0.000002 -15.830504 177.212687 0.856691 -0.000005 -0.000005 -0.846495 -22.191402 1.774069 1.123385 0.000001 -0.000001 -0.393961 74.243528 -6.074120 -4.163776 25.457210 7.359669 -0.008126 
49.881901 -21.107615 86.866295 3.611697 -0.536499 -4.056987 -2.132183 -1.208813 0.978028 -0.241809 -2.446109 1.911189 1.403503 -2.421104 1.940361 3.848729 18.532979 -1.054057 9.497724 -13.144190 -1.708105 -10.560384 -49.430916 -11.890464 -53.795359 -149.604871 -63.888435 -0.000001 -0.000001 -0.000000 0.224380 -27.893724 1.559605 0.000004 -0.000009 -3.033828 -5.000159 -8.000259 0.000074 -39.986041 76.303533 44.945845 103.260746 48.311697 -111.311429 0.000001 0.000001 0.000005 1.120625 26.812995 -1.533776 0.000008 -0.000002 3.004272 -5.000159 8.000160 -0.000105 -18.957882 -176.102754 -1.356012 -179.999991 0.000006 -0.892004 159.723318 -3.993133 -1.246736 -0.000004 0.000005 0.281815 69.356958 6.674306 2.685651 25.456860 -7.355619 -0.000002 -15.819823 177.217359 0.857719 -0.000005 -0.000005 -0.846494 -22.180694 1.773963 1.122711 0.000002 -0.000001 -0.393885 74.238740 -6.074232 -4.163550 25.457206 7.359670 -0.008127 
49.884705 -21.118711 86.866501 3.606671 -0.539097 -4.055271 -2.131655 -1.208834 0.976648 -0.236915 -2.446619 1.909826 1.408398 -2.421210 1.939000 3.849265 18.536160 -1.054344 9.506330 -13.157401 -1.705496 -10.547356 -49.430707 -11.874130 -53.791015 -149.523660 -63.762855 -0.000003 -0.000001 -0.000001 0.224382 -27.871024 1.525067 0.000001 -0.000011 -3.034969 -5.000162 -8.000256 0.000076 -39.993462 76.296621 44.954652 103.238623 48.412258 -111.390878 0.000003 0.000002 0.000006 1.052444 26.768317 -1.518430 0.000008 -0.000000 3.004151 -5.000155 8.000160 -0.000106 -18.948936 -176.099721 -1.350873 -179.999991 0.000006 -0.892004 159.726883 -3.995109 -1.246185 -0.000005 0.000005 0.281815 69.357593 6.675347 2.681702 25.456858 -7.355620 -0.000003 -15.809161 177.221061 0.859053 -0.000005 -0.000004 -0.846494 -22.169887 1.773840 1.122033 0.000001 -0.000001 -0.393810 74.233959 -6.074370 -4.163129 25.457211 7.359667 -0.008126 
49.882401 -21.117216 86.865891 3.601685 -0.541693 -4.053535 -2.131123 -1.208864 0.975279 -0.232051 -2.447140 1.908482 1.413262 -2.421324 1.937659 3.849885 18.539343 -1.054670 9.514919 -13.170415 -1.702919 -10.534459 -49.430588 -11.857945 -53.786507 -149.442217 -63.637419 -0.000004 -0.000001 -0.000001 0.224383 -27.848522 1.490517 0.000001 -0.000009 -3.036112 -5.000163 -8.000255 0.000075 -40.001017 76.289812 44.963572 103.217382 48.512699 -111.471426 0.000005 0.000001 0.000004 0.984661 26.723602 -1.503136 0.000007 -0.000001 3.004029 -5.000158 8.000158 -0.000106 -18.939980 -176.096661 -1.345738 -179.999991 0.000005 -0.892004 159.730421 -3.998008 -1.245974 -0.000005 0.000005 0.281815 69.358331 6.676356 2.677742 25.456854 -7.355619 -0.000003 -15.798596 177.224776 0.860327 -0.000004 -0.000005 -0.846494 -22.159179 1.773752 1.121360 0.000001 -0.000001 -0.393732 74.229082 -6.074546 -4.162817 25.457213 7.359669 -0.008126 
49.881500 -21.104216 86.860390 3.596781 -0.544282 -4.051729 -2.130583 -1.208914 0.973958 -0.227262 -2.447651 1.907204 1.418046 -2.421448 1.936394 3.850689 18.542224 -1.055065 9.523443 -13.183134 -1.700399 -10.521780 -49.430561 -11.842051 -53.780985 -149.360924 -63.511108 -0.000005 -0.000001 -0.000001 0.224379 -27.826119 1.455970 0.000003 -0.000007 -3.037268 -5.000160 -8.000257 0.000073 -40.008420 76.283152 44.972318 103.196966 48.612908 -111.553211 0.000003 0.000002 0.000005 0.917775 26.678657 -1.487810 0.000010 -0.000000 3.003920 -5.000158 8.000157 -0.000104 -18.931153 -176.092686 -1.340935 -179.999991 0.000005 -0.892003 159.733768 -3.999979 -1.246434 -0.000005 0.000005 0.281815 69.359075 6.677400 2.673687 25.456854 -7.355620 -0.000002 -15.788133 177.228478 0.861445 -0.000005 -0.000005 -0.846494 -22.148575 1.773766 1.120698 0.000002 -0.000001 -0.393650 74.224410 -6.074678 -4.162387 25.457206 7.359667 -0.008126 
